# xmcd CD database file
#
# Track frame offsets:
#	225
#	21988
#	30988
#	48002
#	60632
#	73280
#	83231
#	96918
#	109642
#	122736
#	139754
#	153588
#	166015
#	176425
#	190889
#	203228
#
# Disc length: 2876 seconds
#
# Revision: 0
# Processed by: cddbd v1.4PL0 Copyright (c) Steve Scherf et al.
# Submitted via: Feurio! 1.66 - http://www.feurio.com
#
DISCID=d40b3910
DTITLE=Jonny Hill - Herzlichst Jonny Hill
DYEAR=1900
DGENRE=Country
TTITLE0=Ruf Teddybär eins-vier
TTITLE1=Eing Ring aus Feuer 
TTITLE2=Rosen für Mama
TTITLE3=Freunde
TTITLE4=Fünfhundert Meilen von zuhaus
TTITLE5=Susanna
TTITLE6=Carolyn
TTITLE7=Kann Liebe alles verzeih'n
TTITLE8=Mexican Joe
TTITLE9=Addio, Santa Lucia
TTITLE10=Einmal noch nach Haus
TTITLE11=Erinnerung an Tom Dooley
TTITLE12=Heute Nacht, da brauch' ich dich
TTITLE13=In dem kleinen Haus am See
TTITLE14=Der Zug, der heimwärts geht
TTITLE15=Green green gras of home
EXTD=
EXTT0=
EXTT1=Ring of fire
EXTT2=
EXTT3=
EXTT4=500 miles from home
EXTT5=Oh Susanna
EXTT6=
EXTT7=Some broken hearts never mend
EXTT8=Südlich der Grenze
EXTT9=
EXTT10=
EXTT11=
EXTT12=Help it make it through the night
EXTT13=Blanket on the ground
EXTT14=A train that never uns
EXTT15=
PLAYORDER=
